<svg width="16" height="20" viewBox="0 0 16 20" fill="none" xmlns="http://www.w3.org/2000/svg">
<path d="M15.6812 17.275L14.5611 5.56875C14.5309 5.24625 14.2472 5 13.9071 5H11.9374V3.75C11.9374 2.745 11.5277 1.8025 10.7858 1.09625C10.0557 0.4 9.03931 0 7.99799 0C5.82606 0 4.05857 1.6825 4.05857 3.75V5H2.08886C1.74876 5 1.46512 5.24625 1.43492 5.56875L0.317438 17.2738C0.250468 17.9725 0.497338 18.6688 0.993705 19.1863C1.49007 19.7038 2.19654 20 2.93321 20H13.0641C13.7994 20 14.5059 19.7038 15.0023 19.1875C15.5 18.67 15.7455 17.9725 15.6812 17.275ZM10.6243 5H5.37171V3.75C5.37171 2.37125 6.5496 1.25 7.99799 1.25C8.69396 1.25 9.37154 1.515 9.8574 1.97875C10.3525 2.45 10.6243 3.07875 10.6243 3.75V5Z" fill="#0071BC"/>
</svg>
